<svg xmlns="http://www.w3.org/2000/svg" viewBox="0 0 512 512">
  <defs>
    <linearGradient id="bg" x1="0%" y1="0%" x2="100%" y2="100%">
      <stop offset="0%" style="stop-color:#1e40af"/>
      <stop offset="100%" style="stop-color:#3b82f6"/>
    </linearGradient>
  </defs>
  <!-- Background -->
  <rect width="512" height="512" rx="96" fill="url(#bg)"/>
  <!-- Fork -->
  <g transform="translate(120, 80)" fill="white">
    <rect x="35" y="0" width="10" height="200" rx="5"/>
    <rect x="15" y="0" width="10" height="80" rx="5"/>
    <rect x="55" y="0" width="10" height="80" rx="5"/>
    <rect x="20" y="75" width="40" height="10" rx="3"/>
  </g>
  <!-- Knife -->
  <g transform="translate(260, 80)" fill="white">
    <path d="M40 0 C70 0 80 40 80 80 L80 200 C80 205 75 210 70 210 L50 210 C45 210 40 205 40 200 L40 0 Z" opacity="0.9"/>
  </g>
  <!-- Plate -->
  <ellipse cx="256" cy="380" rx="140" ry="30" fill="white" opacity="0.3"/>
  <ellipse cx="256" cy="370" rx="120" ry="25" fill="white" opacity="0.5"/>
  <!-- Text RASF -->
  <text x="256" y="450" font-family="Arial, sans-serif" font-size="48" font-weight="bold" fill="white" text-anchor="middle">RASF</text>
</svg>

